<?xml version="1.0" encoding="UTF-8" standalone="no"?>
<!-- Created with Inkscape (http://www.inkscape.org/) -->

<svg
   xmlns:dc="http://purl.org/dc/elements/1.1/"
   xmlns:cc="http://creativecommons.org/ns#"
   xmlns:rdf="http://www.w3.org/1999/02/22-rdf-syntax-ns#"
   xmlns:svg="http://www.w3.org/2000/svg"
   xmlns="http://www.w3.org/2000/svg"
   xmlns:sodipodi="http://sodipodi.sourceforge.net/DTD/sodipodi-0.dtd"
   xmlns:inkscape="http://www.inkscape.org/namespaces/inkscape"
   width="22"
   height="22"
   id="svg2"
   version="1.1"
   inkscape:version="0.48.3.1 r9886"
   sodipodi:docname="brush.svg"
   inkscape:export-filename="/home/ssg21/Desktop/22x22/brush.png"
   inkscape:export-xdpi="90"
   inkscape:export-ydpi="90">
  <defs
     id="defs4" />
  <sodipodi:namedview
     id="base"
     pagecolor="#ffffff"
     bordercolor="#666666"
     borderopacity="1.0"
     inkscape:pageopacity="0.0"
     inkscape:pageshadow="2"
     inkscape:zoom="24.181818"
     inkscape:cx="11"
     inkscape:cy="11"
     inkscape:document-units="px"
     inkscape:current-layer="layer1"
     showgrid="false"
     inkscape:window-width="1366"
     inkscape:window-height="718"
     inkscape:window-x="0"
     inkscape:window-y="0"
     inkscape:window-maximized="1" />
  <metadata
     id="metadata7">
    <rdf:RDF>
      <cc:Work
         rdf:about="">
        <dc:format>image/svg+xml</dc:format>
        <dc:type
           rdf:resource="http://purl.org/dc/dcmitype/StillImage" />
        <dc:title />
      </cc:Work>
    </rdf:RDF>
  </metadata>
  <g
     inkscape:label="Layer 1"
     inkscape:groupmode="layer"
     id="layer1"
     transform="translate(0,-1030.3622)">
    <g
       id="g3728"
       transform="matrix(0.0155863,0.97773858,-1.0429704,0.01662617,1097.3185,1013.4746)">
      <path
         transform="matrix(0.96283866,-0.81504418,0.81499895,0.9628921,-6.6181223,1039.2938)"
         d="m 20.797184,10.184568 c 0,0.768526 -3.511529,1.39154 -7.84322,1.39154 -4.3316907,0 -7.84322,-0.623014 -7.84322,-1.39154 0,-0.7685254 3.5115293,-1.3915387 7.84322,-1.3915387 4.331691,0 7.84322,0.6230133 7.84322,1.3915387 z"
         sodipodi:ry="1.3915391"
         sodipodi:rx="7.8432202"
         sodipodi:cy="10.184568"
         sodipodi:cx="12.953964"
         id="path4058"
         style="fill:#000000;fill-opacity:1;stroke:#000000;stroke-width:0.15697911;stroke-linejoin:miter;stroke-miterlimit:4;stroke-opacity:1;stroke-dasharray:none;stroke-dashoffset:0"
         sodipodi:type="arc" />
      <path
         inkscape:connector-curvature="0"
         id="path4060"
         d="m 1.2093414,1049.988 c 0,0 6.9284315,-1.0395 6.2050634,-3.5366 -0.7233683,-2.4975 -3.0554895,-2.3461 -3.0554895,-2.3461 0,0 -0.7344497,3.3021 -3.0741059,4.9607 -2.3396571,1.659 -0.075468,0.922 -0.075468,0.922 z"
         style="fill:#000000;stroke:#000000;stroke-width:0.19802839;stroke-linecap:butt;stroke-linejoin:miter;stroke-miterlimit:4;stroke-opacity:1;stroke-dasharray:none" />
      <path
         sodipodi:type="arc"
         style="fill:#ffffff;fill-opacity:1;stroke:#000000;stroke-width:0.26247218;stroke-linejoin:miter;stroke-miterlimit:4;stroke-opacity:1;stroke-dasharray:none;stroke-dashoffset:0"
         id="path4062"
         sodipodi:cx="12.953964"
         sodipodi:cy="10.184568"
         sodipodi:rx="7.8432202"
         sodipodi:ry="1.7028148"
         d="m 20.797184,10.184568 c 0,0.940439 -3.511529,1.702815 -7.84322,1.702815 -4.3316907,0 -7.84322,-0.762376 -7.84322,-1.702815 0,-0.9404383 3.5115293,-1.7028144 7.84322,-1.7028144 4.331691,0 7.84322,0.7623761 7.84322,1.7028144 z"
         transform="matrix(0.60174138,-0.50937487,0.46646368,0.55111014,1.0811159,1039.9489)" />
      <path
         transform="matrix(0.96283866,-0.81504418,0.81499895,0.9628921,-8.2675048,1038.4319)"
         d="m 21.146339,11.480501 c 0,0.138328 -0.128156,0.250464 -0.286245,0.250464 -0.158089,0 -0.286245,-0.112136 -0.286245,-0.250464 0,-0.138327 0.128156,-0.250464 0.286245,-0.250464 0.158089,0 0.286245,0.112137 0.286245,0.250464 z"
         sodipodi:ry="0.25046426"
         sodipodi:rx="0.28624487"
         sodipodi:cy="11.480501"
         sodipodi:cx="20.860094"
         id="path4064"
         style="fill:#ffffff;fill-opacity:1;stroke:#000000;stroke-width:0.15697911;stroke-linejoin:miter;stroke-miterlimit:4;stroke-opacity:1;stroke-dasharray:none;stroke-dashoffset:0"
         sodipodi:type="arc" />
      <path
         sodipodi:type="arc"
         style="fill:#ffffff;fill-opacity:1;stroke:#000000;stroke-width:0.15697911;stroke-linejoin:miter;stroke-miterlimit:4;stroke-opacity:1;stroke-dasharray:none;stroke-dashoffset:0"
         id="path4066"
         sodipodi:cx="20.860094"
         sodipodi:cy="11.480501"
         sodipodi:rx="0.28624487"
         sodipodi:ry="0.25046426"
         d="m 21.146339,11.480501 c 0,0.138328 -0.128156,0.250464 -0.286245,0.250464 -0.158089,0 -0.286245,-0.112136 -0.286245,-0.250464 0,-0.138327 0.128156,-0.250464 0.286245,-0.250464 0.158089,0 0.286245,0.112137 0.286245,0.250464 z"
         transform="matrix(0.96283866,-0.81504418,0.81499895,0.9628921,-9.3480705,1038.7549)" />
      <path
         transform="matrix(0.96283866,-0.81504418,0.81499895,0.9628921,-8.4808426,1039.5001)"
         d="m 21.146339,11.480501 c 0,0.138328 -0.128156,0.250464 -0.286245,0.250464 -0.158089,0 -0.286245,-0.112136 -0.286245,-0.250464 0,-0.138327 0.128156,-0.250464 0.286245,-0.250464 0.158089,0 0.286245,0.112137 0.286245,0.250464 z"
         sodipodi:ry="0.25046426"
         sodipodi:rx="0.28624487"
         sodipodi:cy="11.480501"
         sodipodi:cx="20.860094"
         id="path4068"
         style="fill:#ffffff;fill-opacity:1;stroke:#000000;stroke-width:0.15697911;stroke-linejoin:miter;stroke-miterlimit:4;stroke-opacity:1;stroke-dasharray:none;stroke-dashoffset:0"
         sodipodi:type="arc" />
      <path
         inkscape:connector-curvature="0"
         id="path4072"
         d="m 20.993206,1034.4883 c 0,0 -2.072781,-0.4927 -1.572017,-1.5079 0.500766,-1.0154 0.500766,-1.0154 0.500766,-1.0154 l 0,0 0,0 0,0"
         style="fill:none;stroke:#f7f7f7;stroke-width:0.19802839;stroke-linecap:butt;stroke-linejoin:miter;stroke-miterlimit:4;stroke-opacity:1;stroke-dasharray:none" />
      <path
         sodipodi:nodetypes="cccc"
         inkscape:connector-curvature="0"
         id="path4080"
         d="m 2.651405,1049.5864 c 2.1555904,-1.0189 4.0464001,-2.0989 3.71485,-3.6909 l 0,0 0,0"
         style="fill:none;stroke:#f6f6f6;stroke-width:0.0495071;stroke-linecap:butt;stroke-linejoin:miter;stroke-miterlimit:4;stroke-opacity:1;stroke-dasharray:none" />
      <path
         style="fill:none;stroke:#f6f6f6;stroke-width:0.0495071;stroke-linecap:butt;stroke-linejoin:miter;stroke-miterlimit:4;stroke-opacity:1;stroke-dasharray:none"
         d="m 1.8124949,1049.7601 c 2.2534943,-1.2218 4.2122455,-2.5209 3.6967934,-4.4694 l 0,0 0,0"
         id="path4082"
         inkscape:connector-curvature="0"
         sodipodi:nodetypes="cccc" />
      <path
         sodipodi:nodetypes="cccc"
         inkscape:connector-curvature="0"
         id="path4084"
         d="m 0.90197907,1049.9091 c 2.13336623,-1.4211 3.96611133,-2.8927 3.27594893,-4.7864 l 0,0 0,0"
         style="fill:none;stroke:#f6f6f6;stroke-width:0.0495071;stroke-linecap:butt;stroke-linejoin:miter;stroke-miterlimit:4;stroke-opacity:1;stroke-dasharray:none" />
      <path
         transform="matrix(1.4032491,-1.1877923,1.1861397,1.401311,-15.17581,1035.4752)"
         d="m 5.29553,11.793581 c 0,0.301357 -0.2242734,0.545654 -0.5009286,0.545654 -0.2766551,0 -0.5009285,-0.244297 -0.5009285,-0.545654 0,-0.301357 0.2242734,-0.545654 0.5009285,-0.545654 0.2766552,0 0.5009286,0.244297 0.5009286,0.545654 z"
         sodipodi:ry="0.5456543"
         sodipodi:rx="0.50092852"
         sodipodi:cy="11.793581"
         sodipodi:cx="4.7946014"
         id="path4086"
         style="fill:#ffffff;fill-opacity:1;stroke:#f7f7f7;stroke-width:0.0538943;stroke-linejoin:miter;stroke-miterlimit:4;stroke-opacity:1;stroke-dasharray:none;stroke-dashoffset:0"
         sodipodi:type="arc" />
      <path
         sodipodi:type="arc"
         style="fill:#000000;fill-opacity:1;stroke:#f7f7f7;stroke-width:0.07029236;stroke-linejoin:miter;stroke-miterlimit:4;stroke-opacity:1;stroke-dasharray:none;stroke-dashoffset:0"
         id="path4088"
         sodipodi:cx="4.7946014"
         sodipodi:cy="11.793581"
         sodipodi:rx="0.50092852"
         sodipodi:ry="0.5456543"
         d="m 5.29553,11.793581 c 0,0.301357 -0.2242734,0.545654 -0.5009286,0.545654 -0.2766551,0 -0.5009285,-0.244297 -0.5009285,-0.545654 0,-0.301357 0.2242734,-0.545654 0.5009285,-0.545654 0.2766552,0 0.5009286,0.244297 0.5009286,0.545654 z"
         transform="matrix(0.21175957,-0.17924571,0.18482331,0.21835112,2.6594261,1044.3777)" />
      <path
         transform="matrix(0.37362473,-0.31625786,0.32543743,0.38447326,-0.56230778,1043.1591)"
         d="m 5.29553,11.793581 c 0,0.301357 -0.2242734,0.545654 -0.5009286,0.545654 -0.2766551,0 -0.5009285,-0.244297 -0.5009285,-0.545654 0,-0.301357 0.2242734,-0.545654 0.5009285,-0.545654 0.2766552,0 0.5009286,0.244297 0.5009286,0.545654 z"
         sodipodi:ry="0.5456543"
         sodipodi:rx="0.50092852"
         sodipodi:cy="11.793581"
         sodipodi:cx="4.7946014"
         id="path4090"
         style="fill:#000000;fill-opacity:1;stroke:#f7f7f7;stroke-width:0.03988012;stroke-linejoin:miter;stroke-miterlimit:4;stroke-opacity:1;stroke-dasharray:none;stroke-dashoffset:0"
         sodipodi:type="arc" />
      <path
         sodipodi:type="arc"
         style="fill:#000000;fill-opacity:1;stroke:#f7f7f7;stroke-width:0.06109704;stroke-linejoin:miter;stroke-miterlimit:4;stroke-opacity:1;stroke-dasharray:none;stroke-dashoffset:0"
         id="path4092"
         sodipodi:cx="4.7946014"
         sodipodi:cy="11.793581"
         sodipodi:rx="0.50092852"
         sodipodi:ry="0.5456543"
         d="m 5.29553,11.793581 c 0,0.301357 -0.2242734,0.545654 -0.5009286,0.545654 -0.2766551,0 -0.5009285,-0.244297 -0.5009285,-0.545654 0,-0.301357 0.2242734,-0.545654 0.5009285,-0.545654 0.2766552,0 0.5009286,0.244297 0.5009286,0.545654 z"
         transform="matrix(0.24363821,-0.20622965,0.21263286,0.25120544,2.1526952,1044.7876)" />
      <path
         inkscape:connector-curvature="0"
         id="path4094"
         d="m 2.1285502,1051.2289 c 0,0 -0.1267924,0.1076 0.095494,-0.7319 0.2221897,-0.8394 -0.034992,0.2157 0.381078,0.2664 0.4162613,0.052 0.094957,-0.3284 0.087313,0.3603 -0.00773,0.6888 -0.4573191,0.6353 -0.4109791,0.2858 0.046243,-0.3493 -0.1207274,-0.363 -0.1207274,-0.363 z"
         style="fill:#000000;stroke:#000000;stroke-width:0.01980284;stroke-linecap:butt;stroke-linejoin:miter;stroke-miterlimit:4;stroke-opacity:1;stroke-dasharray:none" />
      <path
         inkscape:connector-curvature="0"
         id="path4096"
         d="m 0.73330113,1050.4327 c 0,0 -0.3100627,-0.1325 0.31826077,0.454 0.6285147,0.5867 0.308632,0.5724 0.1856707,0.064 -0.1235351,-0.5097 -0.33215043,-0.5742 -0.33215043,-0.5742 z"
         style="fill:none;stroke:#000000;stroke-width:0.09901419;stroke-linecap:butt;stroke-linejoin:miter;stroke-miterlimit:4;stroke-opacity:1;stroke-dasharray:none" />
      <path
         transform="matrix(0.13268923,-0.11231592,0.11203205,0.13235517,0.51614806,1049.6584)"
         d="m -1.6727434,12.858054 c 0,0.36064 -0.2543099,0.652996 -0.5680172,0.652996 -0.3137072,0 -0.5680171,-0.292356 -0.5680171,-0.652996 0,-0.36064 0.2543099,-0.652996 0.5680171,-0.652996 0.3137073,0 0.5680172,0.292356 0.5680172,0.652996 z"
         sodipodi:ry="0.65299612"
         sodipodi:rx="0.56801718"
         sodipodi:cy="12.858054"
         sodipodi:cx="-2.2407606"
         id="path4100"
         style="fill:#000000;fill-opacity:1;stroke:#f7f7f7;stroke-width:0;stroke-linejoin:miter;stroke-miterlimit:4;stroke-opacity:1;stroke-dasharray:none;stroke-dashoffset:0"
         sodipodi:type="arc" />
      <path
         sodipodi:nodetypes="cc"
         inkscape:connector-curvature="0"
         id="path4102"
         d="m 9.9258146,1042.457 c 0.8212934,-3.6214 5.6721534,-2.0806 7.0755314,-6.9062"
         style="fill:none;stroke:#000000;stroke-width:0.09901419;stroke-linecap:butt;stroke-linejoin:miter;stroke-miterlimit:4;stroke-opacity:1;stroke-dasharray:none" />
      <path
         sodipodi:type="arc"
         style="fill:none;stroke:#fbfbfb;stroke-width:0.09967288;stroke-linejoin:miter;stroke-miterlimit:4;stroke-opacity:1;stroke-dasharray:none;stroke-dashoffset:0"
         id="path4104"
         sodipodi:cx="12.953964"
         sodipodi:cy="10.184568"
         sodipodi:rx="7.8432202"
         sodipodi:ry="1.3915391"
         d="m 20.797184,10.184568 c 0,0.768526 -3.511529,1.39154 -7.84322,1.39154 -4.3316907,0 -7.84322,-0.623014 -7.84322,-1.39154 0,-0.7685254 3.5115293,-1.3915387 7.84322,-1.3915387 4.331691,0 7.84322,0.6230133 7.84322,1.3915387 z"
         transform="matrix(0.7630376,-0.64591233,0.63772626,0.75345075,-2.9361129,1039.7964)" />
      <path
         style="fill:none;stroke:#f7f7f7;stroke-width:0.09901419;stroke-linecap:butt;stroke-linejoin:miter;stroke-miterlimit:4;stroke-opacity:1;stroke-dasharray:none"
         d="m 1.5095497,1049.7823 c 0,0 6.3336981,-0.9498 5.6724237,-3.2313 -0.6612747,-2.282 -2.7932078,-2.1436 -2.7932078,-2.1436 0,0 -0.6714049,3.0171 -2.8102261,4.5325 -2.13882197,1.5157 -0.068989,0.8424 -0.068989,0.8424 z"
         id="path4146"
         inkscape:connector-curvature="0" />
    </g>
  </g>
</svg>
