<?xml version="1.0" encoding="UTF-8" standalone="no"?>
<!-- Created with Inkscape (http://www.inkscape.org/) -->

<svg
   xmlns:dc="http://purl.org/dc/elements/1.1/"
   xmlns:cc="http://creativecommons.org/ns#"
   xmlns:rdf="http://www.w3.org/1999/02/22-rdf-syntax-ns#"
   xmlns:svg="http://www.w3.org/2000/svg"
   xmlns="http://www.w3.org/2000/svg"
   xmlns:sodipodi="http://sodipodi.sourceforge.net/DTD/sodipodi-0.dtd"
   xmlns:inkscape="http://www.inkscape.org/namespaces/inkscape"
   width="25"
   height="25"
   id="svg2"
   version="1.1"
   inkscape:version="0.48.3.1 r9886"
   sodipodi:docname="brush1.svg"
   inkscape:export-filename="/home/ssg21/Desktop/22x22/brush.png"
   inkscape:export-xdpi="90"
   inkscape:export-ydpi="90">
  <defs
     id="defs4" />
  <sodipodi:namedview
     id="base"
     pagecolor="#ffffff"
     bordercolor="#666666"
     borderopacity="1.0"
     inkscape:pageopacity="0.0"
     inkscape:pageshadow="2"
     inkscape:zoom="15.047232"
     inkscape:cx="10.420576"
     inkscape:cy="13.709477"
     inkscape:document-units="px"
     inkscape:current-layer="layer1"
     showgrid="false"
     inkscape:window-width="1366"
     inkscape:window-height="718"
     inkscape:window-x="0"
     inkscape:window-y="0"
     inkscape:window-maximized="1" />
  <metadata
     id="metadata7">
    <rdf:RDF>
      <cc:Work
         rdf:about="">
        <dc:format>image/svg+xml</dc:format>
        <dc:type
           rdf:resource="http://purl.org/dc/dcmitype/StillImage" />
        <dc:title />
      </cc:Work>
    </rdf:RDF>
  </metadata>
  <g
     inkscape:label="Layer 1"
     inkscape:groupmode="layer"
     id="layer1"
     transform="translate(0,-1027.3622)">
    <g
       id="g3792"
       transform="matrix(0.95401411,-0.01980167,0.01980167,0.95401411,-15.106178,49.355319)">
      <g
         transform="translate(6.348804,3.0592157)"
         id="g3023">
        <path
           style="fill:#000000;stroke:#000000;stroke-width:0.02;stroke-linecap:butt;stroke-linejoin:miter;stroke-miterlimit:4;stroke-opacity:1;stroke-dasharray:none"
           d="m 0.7029499,1032.8683 c 0,0 -0.11419984,-0.1222 0.7648384,0.081 0.8789325,0.2033 -0.2255141,-0.031 -0.2719077,0.377 -0.047746,0.4079 0.3439915,0.087 -0.37442134,0.091 -0.71851849,0 -0.669727,-0.4366 -0.30448658,-0.3971 0.36503032,0.039 0.37671656,-0.1241 0.37671656,-0.1241 z"
           id="path4094"
           inkscape:connector-curvature="0" />
        <path
           style="fill:none;stroke:#000000;stroke-width:0.1;stroke-linecap:butt;stroke-linejoin:miter;stroke-miterlimit:4;stroke-opacity:1;stroke-dasharray:none"
           d="m 1.5116162,1031.4908 c 0,0 0.1333608,-0.3053 -0.4685481,0.3188 -0.60211451,0.6243 -0.59218582,0.3113 -0.0638562,0.1826 0.5296766,-0.1293 0.5936966,-0.3343 0.5936966,-0.3343 z"
           id="path4096"
           inkscape:connector-curvature="0" />
        <path
           sodipodi:type="arc"
           style="fill:#000000;fill-opacity:1;stroke:#f7f7f7;stroke-width:0;stroke-linejoin:miter;stroke-miterlimit:4;stroke-opacity:1;stroke-dasharray:none;stroke-dashoffset:0"
           id="path4100"
           sodipodi:cx="-2.2407606"
           sodipodi:cy="12.858054"
           sodipodi:rx="0.56801718"
           sodipodi:ry="0.65299612"
           d="m -1.6727434,12.858054 c 0,0.36064 -0.2543099,0.652996 -0.5680172,0.652996 -0.3137072,0 -0.5680171,-0.292356 -0.5680171,-0.652996 0,-0.36064 0.2543099,-0.652996 0.5680171,-0.652996 0.3137073,0 0.5680172,0.292356 0.5680172,0.652996 z"
           transform="matrix(0.11921031,0.127868,-0.13629636,0.11173862,2.3158035,1031.2657)" />
      </g>
      <g
         transform="translate(-1.6892915,-0.51415648)"
         id="g3028">
        <path
           sodipodi:type="arc"
           style="fill:#000000;fill-opacity:1;stroke:#000000;stroke-width:0.15697911;stroke-linejoin:miter;stroke-miterlimit:4;stroke-opacity:1;stroke-dasharray:none;stroke-dashoffset:0"
           id="path4058"
           sodipodi:cx="12.953964"
           sodipodi:cy="10.184568"
           sodipodi:rx="7.8432202"
           sodipodi:ry="1.3915391"
           d="m 20.797184,10.184568 c 0,0.768526 -3.511529,1.39154 -7.84322,1.39154 -4.3316907,0 -7.84322,-0.623014 -7.84322,-1.39154 0,-0.7685254 3.5115293,-1.3915387 7.84322,-1.3915387 4.331691,0 7.84322,0.6230133 7.84322,1.3915387 z"
           transform="matrix(0.86507405,0.92785344,-0.99156514,0.81286512,13.014578,1024.1179)" />
        <path
           style="fill:#000000;stroke:#000000;stroke-width:0.2;stroke-linecap:butt;stroke-linejoin:miter;stroke-miterlimit:4;stroke-opacity:1;stroke-dasharray:none"
           d="m 1.9828448,1031.9489 c 0,0 1.1921563,6.7569 3.7852831,6.0081 2.5935439,-0.7488 2.3992891,-3.0264 2.3992891,-3.0264 0,0 -3.4554399,-0.6632 -5.2217772,-2.9232 -1.7667545,-2.26 -0.962795,-0.058 -0.962795,-0.058 z"
           id="path4060"
           inkscape:connector-curvature="0" />
        <path
           transform="matrix(0.54064183,0.57987681,-0.56752112,0.46524239,12.45133,1031.6566)"
           d="m 20.797184,10.184568 c 0,0.940439 -3.511529,1.702815 -7.84322,1.702815 -4.3316907,0 -7.84322,-0.762376 -7.84322,-1.702815 0,-0.9404383 3.5115293,-1.7028144 7.84322,-1.7028144 4.331691,0 7.84322,0.7623761 7.84322,1.7028144 z"
           sodipodi:ry="1.7028148"
           sodipodi:rx="7.8432202"
           sodipodi:cy="10.184568"
           sodipodi:cx="12.953964"
           id="path4062"
           style="fill:#ffffff;fill-opacity:1;stroke:#000000;stroke-width:0.26247218;stroke-linejoin:miter;stroke-miterlimit:4;stroke-opacity:1;stroke-dasharray:none;stroke-dashoffset:0"
           sodipodi:type="arc" />
        <path
           sodipodi:type="arc"
           style="fill:#ffffff;fill-opacity:1;stroke:#000000;stroke-width:0.15697911;stroke-linejoin:miter;stroke-miterlimit:4;stroke-opacity:1;stroke-dasharray:none;stroke-dashoffset:0"
           id="path4064"
           sodipodi:cx="20.860094"
           sodipodi:cy="11.480501"
           sodipodi:rx="0.28624487"
           sodipodi:ry="0.25046426"
           d="m 21.146339,11.480501 c 0,0.138328 -0.128156,0.250464 -0.286245,0.250464 -0.158089,0 -0.286245,-0.112136 -0.286245,-0.250464 0,-0.138327 0.128156,-0.250464 0.286245,-0.250464 0.158089,0 0.286245,0.112137 0.286245,0.250464 z"
           transform="matrix(0.86507405,0.92785344,-0.99156514,0.81286512,13.887806,1022.4909)" />
        <path
           transform="matrix(0.86507405,0.92785344,-0.99156514,0.81286512,13.534085,1021.4397)"
           d="m 21.146339,11.480501 c 0,0.138328 -0.128156,0.250464 -0.286245,0.250464 -0.158089,0 -0.286245,-0.112136 -0.286245,-0.250464 0,-0.138327 0.128156,-0.250464 0.286245,-0.250464 0.158089,0 0.286245,0.112137 0.286245,0.250464 z"
           sodipodi:ry="0.25046426"
           sodipodi:rx="0.28624487"
           sodipodi:cy="11.480501"
           sodipodi:cx="20.860094"
           id="path4066"
           style="fill:#ffffff;fill-opacity:1;stroke:#000000;stroke-width:0.15697911;stroke-linejoin:miter;stroke-miterlimit:4;stroke-opacity:1;stroke-dasharray:none;stroke-dashoffset:0"
           sodipodi:type="arc" />
        <path
           sodipodi:type="arc"
           style="fill:#ffffff;fill-opacity:1;stroke:#000000;stroke-width:0.15697911;stroke-linejoin:miter;stroke-miterlimit:4;stroke-opacity:1;stroke-dasharray:none;stroke-dashoffset:0"
           id="path4068"
           sodipodi:cx="20.860094"
           sodipodi:cy="11.480501"
           sodipodi:rx="0.28624487"
           sodipodi:ry="0.25046426"
           d="m 21.146339,11.480501 c 0,0.138328 -0.128156,0.250464 -0.286245,0.250464 -0.158089,0 -0.286245,-0.112136 -0.286245,-0.250464 0,-0.138327 0.128156,-0.250464 0.286245,-0.250464 0.158089,0 0.286245,0.112137 0.286245,0.250464 z"
           transform="matrix(0.86507405,0.92785344,-0.99156514,0.81286512,12.77038,1022.3001)" />
        <path
           style="fill:none;stroke:#f7f7f7;stroke-width:0.2;stroke-linecap:butt;stroke-linejoin:miter;stroke-miterlimit:4;stroke-opacity:1;stroke-dasharray:none"
           d="m 18.45693,1051.0346 c 0,0 0.481565,-2.0348 1.548193,-1.562 1.066838,0.4727 1.066838,0.4727 1.066838,0.4727 l 0,0 0,0 0,0"
           id="path4072"
           inkscape:connector-curvature="0" />
        <path
           style="fill:none;stroke:#f6f6f6;stroke-width:0.05;stroke-linecap:butt;stroke-linejoin:miter;stroke-miterlimit:4;stroke-opacity:1;stroke-dasharray:none"
           d="m 2.4241782,1033.3522 c 1.0962802,2.0906 2.2521589,3.9214 3.9074002,3.5708 l 0,0 0,0"
           id="path4080"
           inkscape:connector-curvature="0"
           sodipodi:nodetypes="cccc" />
        <path
           sodipodi:nodetypes="cccc"
           inkscape:connector-curvature="0"
           id="path4082"
           d="m 2.2299387,1032.5348 c 1.3094249,2.1831 2.6948774,4.0766 4.7190712,3.5402 l 0,0 0,0"
           style="fill:none;stroke:#f6f6f6;stroke-width:0.05;stroke-linecap:butt;stroke-linejoin:miter;stroke-miterlimit:4;stroke-opacity:1;stroke-dasharray:none" />
        <path
           style="fill:none;stroke:#f6f6f6;stroke-width:0.05;stroke-linecap:butt;stroke-linejoin:miter;stroke-miterlimit:4;stroke-opacity:1;stroke-dasharray:none"
           d="m 2.0603445,1031.6471 c 1.5154165,2.0622 3.0788175,3.8297 5.0431335,3.1234 l 0,0 0,0"
           id="path4084"
           inkscape:connector-curvature="0"
           sodipodi:nodetypes="cccc" />
        <path
           sodipodi:type="arc"
           style="fill:#ffffff;fill-opacity:1;stroke:#f7f7f7;stroke-width:0.0538943;stroke-linejoin:miter;stroke-miterlimit:4;stroke-opacity:1;stroke-dasharray:none;stroke-dashoffset:0"
           id="path4086"
           sodipodi:cx="4.7946014"
           sodipodi:cy="11.793581"
           sodipodi:rx="0.50092852"
           sodipodi:ry="0.5456543"
           d="m 5.29553,11.793581 c 0,0.301357 -0.2242734,0.545654 -0.5009286,0.545654 -0.2766551,0 -0.5009285,-0.244297 -0.5009285,-0.545654 0,-0.301357 0.2242734,-0.545654 0.5009285,-0.545654 0.2766552,0 0.5009286,0.244297 0.5009286,0.545654 z"
           transform="matrix(1.2607037,1.3522623,-1.4430384,1.183033,16.863882,1015.6872)" />
        <path
           transform="matrix(0.19024852,0.20406533,-0.22485304,0.18433922,7.8568231,1033.2734)"
           d="m 5.29553,11.793581 c 0,0.301357 -0.2242734,0.545654 -0.5009286,0.545654 -0.2766551,0 -0.5009285,-0.244297 -0.5009285,-0.545654 0,-0.301357 0.2242734,-0.545654 0.5009285,-0.545654 0.2766552,0 0.5009286,0.244297 0.5009286,0.545654 z"
           sodipodi:ry="0.5456543"
           sodipodi:rx="0.50092852"
           sodipodi:cy="11.793581"
           sodipodi:cx="4.7946014"
           id="path4088"
           style="fill:#000000;fill-opacity:1;stroke:#f7f7f7;stroke-width:0.07029236;stroke-linejoin:miter;stroke-miterlimit:4;stroke-opacity:1;stroke-dasharray:none;stroke-dashoffset:0"
           sodipodi:type="arc" />
        <path
           sodipodi:type="arc"
           style="fill:#000000;fill-opacity:1;stroke:#f7f7f7;stroke-width:0.03988012;stroke-linejoin:miter;stroke-miterlimit:4;stroke-opacity:1;stroke-dasharray:none;stroke-dashoffset:0"
           id="path4090"
           sodipodi:cx="4.7946014"
           sodipodi:cy="11.793581"
           sodipodi:rx="0.50092852"
           sodipodi:ry="0.5456543"
           d="m 5.29553,11.793581 c 0,0.301357 -0.2242734,0.545654 -0.5009286,0.545654 -0.2766551,0 -0.5009285,-0.244297 -0.5009285,-0.545654 0,-0.301357 0.2242734,-0.545654 0.5009285,-0.545654 0.2766552,0 0.5009286,0.244297 0.5009286,0.545654 z"
           transform="matrix(0.33567101,0.36004916,-0.39592186,0.32458505,9.0775719,1030.1032)" />
        <path
           transform="matrix(0.21888884,0.23478567,-0.25868568,0.21207593,7.4214115,1032.7848)"
           d="m 5.29553,11.793581 c 0,0.301357 -0.2242734,0.545654 -0.5009286,0.545654 -0.2766551,0 -0.5009285,-0.244297 -0.5009285,-0.545654 0,-0.301357 0.2242734,-0.545654 0.5009285,-0.545654 0.2766552,0 0.5009286,0.244297 0.5009286,0.545654 z"
           sodipodi:ry="0.5456543"
           sodipodi:rx="0.50092852"
           sodipodi:cy="11.793581"
           sodipodi:cx="4.7946014"
           id="path4092"
           style="fill:#000000;fill-opacity:1;stroke:#f7f7f7;stroke-width:0.06109704;stroke-linejoin:miter;stroke-miterlimit:4;stroke-opacity:1;stroke-dasharray:none;stroke-dashoffset:0"
           sodipodi:type="arc" />
        <path
           style="fill:none;stroke:#000000;stroke-width:0.1;stroke-linecap:butt;stroke-linejoin:miter;stroke-miterlimit:4;stroke-opacity:1;stroke-dasharray:none"
           d="m 9.9733125,1040.3461 c 3.7898135,0.7428 2.2584125,5.5113 7.3132435,6.8032"
           id="path4102"
           inkscape:connector-curvature="0"
           sodipodi:nodetypes="cc" />
        <path
           transform="matrix(0.68556037,0.73531225,-0.77588704,0.63605657,12.54777,1027.7263)"
           d="m 20.797184,10.184568 c 0,0.768526 -3.511529,1.39154 -7.84322,1.39154 -4.3316907,0 -7.84322,-0.623014 -7.84322,-1.39154 0,-0.7685254 3.5115293,-1.3915387 7.84322,-1.3915387 4.331691,0 7.84322,0.6230133 7.84322,1.3915387 z"
           sodipodi:ry="1.3915391"
           sodipodi:rx="7.8432202"
           sodipodi:cy="10.184568"
           sodipodi:cx="12.953964"
           id="path4104"
           style="fill:none;stroke:#fbfbfb;stroke-width:0.09967288;stroke-linejoin:miter;stroke-miterlimit:4;stroke-opacity:1;stroke-dasharray:none;stroke-dashoffset:0"
           sodipodi:type="arc" />
        <path
           inkscape:connector-curvature="0"
           id="path4146"
           d="m 2.202063,1032.239 c 0,0 1.0893322,6.1769 3.4585623,5.4924 2.3697516,-0.6845 2.1921756,-2.7666 2.1921756,-2.7666 0,0 -3.1572107,-0.6063 -4.7710644,-2.6723 -1.6141665,-2.0661 -0.8796735,-0.053 -0.8796735,-0.053 z"
           style="fill:none;stroke:#f7f7f7;stroke-width:0.1;stroke-linecap:butt;stroke-linejoin:miter;stroke-miterlimit:4;stroke-opacity:1;stroke-dasharray:none" />
      </g>
    </g>
    <path
       style="fill:none;stroke:#000000;stroke-width:0.5;stroke-linecap:butt;stroke-linejoin:miter;stroke-miterlimit:4;stroke-opacity:1;stroke-dasharray:none"
       d="m 2.9629707,1027.378 0,5.8625"
       id="path2992"
       inkscape:connector-curvature="0" />
    <path
       inkscape:connector-curvature="0"
       id="path3762"
       d="m 5.8942228,1030.3093 -5.86250421,0"
       style="fill:none;stroke:#000000;stroke-width:0.5;stroke-linecap:butt;stroke-linejoin:miter;stroke-miterlimit:4;stroke-opacity:1;stroke-dasharray:none" />
  </g>
</svg>
