<?xml version="1.0" encoding="UTF-8" standalone="no"?>
<!-- Created with Inkscape (http://www.inkscape.org/) -->

<svg
   xmlns:dc="http://purl.org/dc/elements/1.1/"
   xmlns:cc="http://creativecommons.org/ns#"
   xmlns:rdf="http://www.w3.org/1999/02/22-rdf-syntax-ns#"
   xmlns:svg="http://www.w3.org/2000/svg"
   xmlns="http://www.w3.org/2000/svg"
   xmlns:sodipodi="http://sodipodi.sourceforge.net/DTD/sodipodi-0.dtd"
   xmlns:inkscape="http://www.inkscape.org/namespaces/inkscape"
   width="22"
   height="22"
   id="svg3789"
   version="1.1"
   inkscape:version="0.48.3.1 r9886"
   sodipodi:docname="cut.svg"
   inkscape:export-filename="/home/ssg21/Desktop/22x22/save.png"
   inkscape:export-xdpi="90"
   inkscape:export-ydpi="90">
  <defs
     id="defs3791" />
  <sodipodi:namedview
     id="base"
     pagecolor="#ffffff"
     bordercolor="#666666"
     borderopacity="1.0"
     inkscape:pageopacity="0.0"
     inkscape:pageshadow="2"
     inkscape:zoom="7.4116865"
     inkscape:cx="10.591229"
     inkscape:cy="2.3755956"
     inkscape:document-units="px"
     inkscape:current-layer="layer1"
     showgrid="false"
     inkscape:window-width="1366"
     inkscape:window-height="718"
     inkscape:window-x="0"
     inkscape:window-y="0"
     inkscape:window-maximized="1"
     showguides="true"
     inkscape:guide-bbox="true" />
  <metadata
     id="metadata3794">
    <rdf:RDF>
      <cc:Work
         rdf:about="">
        <dc:format>image/svg+xml</dc:format>
        <dc:type
           rdf:resource="http://purl.org/dc/dcmitype/StillImage" />
        <dc:title />
      </cc:Work>
    </rdf:RDF>
  </metadata>
  <g
     inkscape:label="Layer 1"
     inkscape:groupmode="layer"
     id="layer1"
     transform="translate(0,-1030.3622)">
    <path
       sodipodi:type="arc"
       style="fill:#000000;fill-opacity:1;stroke:#060e0c;stroke-width:0;stroke-miterlimit:0;stroke-opacity:0.45833339;stroke-dasharray:none;stroke-dashoffset:0"
       id="path4020"
       sodipodi:cx="155.56349"
       sodipodi:cy="218.48126"
       sodipodi:rx="64.649765"
       sodipodi:ry="6.5659914"
       d="m 220.21326,218.48126 c 0,3.6263 -28.94469,6.56599 -64.64977,6.56599 -35.70508,0 -64.649763,-2.93969 -64.649763,-6.56599 0,-3.62629 28.944683,-6.56599 64.649763,-6.56599 35.70508,0 64.64977,2.9397 64.64977,6.56599 z"
       transform="matrix(-0.0630097,-0.13658644,-0.13604449,0.06326069,49.490807,1048.4797)" />
    <g
       transform="matrix(0.32351124,0,0,0.32351124,-24.84951,960.65133)"
       id="g4022"
       style="fill:#000000">
      <path
         transform="matrix(1.25,0,0,1.25,-58.14286,-65.590546)"
         d="m 131.42857,268.07648 c 0,3.15591 -2.55837,5.71428 -5.71428,5.71428 -3.15592,0 -5.71429,-2.55837 -5.71429,-5.71428 0,-3.15592 2.55837,-5.71429 5.71429,-5.71429 3.15591,0 5.71428,2.55837 5.71428,5.71429 z"
         sodipodi:ry="5.7142859"
         sodipodi:rx="5.7142859"
         sodipodi:cy="268.07648"
         sodipodi:cx="125.71429"
         id="path3940"
         style="fill:#000000;fill-opacity:1;stroke:#060e0c;stroke-width:0;stroke-miterlimit:0;stroke-opacity:0.45833339;stroke-dasharray:none;stroke-dashoffset:0"
         sodipodi:type="arc" />
      <path
         sodipodi:type="arc"
         style="fill:#000000;fill-opacity:1;stroke:#060e0c;stroke-width:0;stroke-miterlimit:0;stroke-opacity:0.45833339;stroke-dasharray:none;stroke-dashoffset:0"
         id="path3942"
         sodipodi:cx="125.71429"
         sodipodi:cy="268.07648"
         sodipodi:rx="5.7142859"
         sodipodi:ry="5.7142859"
         d="m 131.42857,268.07648 c 0,3.15591 -2.55837,5.71428 -5.71428,5.71428 -3.15592,0 -5.71429,-2.55837 -5.71429,-5.71428 0,-3.15592 2.55837,-5.71429 5.71429,-5.71429 3.15591,0 5.71428,2.55837 5.71428,5.71429 z"
         transform="matrix(0.87500001,0,0,0.87500001,-11.14286,35.080993)" />
    </g>
    <path
       transform="matrix(0.0630097,-0.13658644,0.13604449,0.06326069,-27.274233,1048.4797)"
       d="m 220.21326,218.48126 c 0,3.6263 -28.94469,6.56599 -64.64977,6.56599 -35.70508,0 -64.649763,-2.93969 -64.649763,-6.56599 0,-3.62629 28.944683,-6.56599 64.649763,-6.56599 35.70508,0 64.64977,2.9397 64.64977,6.56599 z"
       sodipodi:ry="6.5659914"
       sodipodi:rx="64.649765"
       sodipodi:cy="218.48126"
       sodipodi:cx="155.56349"
       id="path7047"
       style="fill:#000000;fill-opacity:1;stroke:#060e0c;stroke-width:0;stroke-miterlimit:0;stroke-opacity:0.45833339;stroke-dasharray:none;stroke-dashoffset:0"
       sodipodi:type="arc" />
    <g
       transform="matrix(0.11997445,0,0,0.11997445,-0.77340588,1011.252)"
       id="g11042"
       style="fill:#ffffff">
      <path
         transform="matrix(1.25,0,0,1.25,-58.14286,-65.590546)"
         d="m 131.42857,268.07648 c 0,3.15591 -2.55837,5.71428 -5.71428,5.71428 -3.15592,0 -5.71429,-2.55837 -5.71429,-5.71428 0,-3.15592 2.55837,-5.71429 5.71429,-5.71429 3.15591,0 5.71428,2.55837 5.71428,5.71429 z"
         sodipodi:ry="5.7142859"
         sodipodi:rx="5.7142859"
         sodipodi:cy="268.07648"
         sodipodi:cx="125.71429"
         id="path11044"
         style="fill:#ffffff;fill-opacity:1;stroke:#060e0c;stroke-width:0;stroke-miterlimit:0;stroke-opacity:0.45833339;stroke-dasharray:none;stroke-dashoffset:0"
         sodipodi:type="arc" />
      <path
         sodipodi:type="arc"
         style="fill:#ffffff;fill-opacity:1;stroke:#060e0c;stroke-width:0;stroke-miterlimit:0;stroke-opacity:0.45833339;stroke-dasharray:none;stroke-dashoffset:0"
         id="path11046"
         sodipodi:cx="125.71429"
         sodipodi:cy="268.07648"
         sodipodi:rx="5.7142859"
         sodipodi:ry="5.7142859"
         d="m 131.42857,268.07648 c 0,3.15591 -2.55837,5.71428 -5.71428,5.71428 -3.15592,0 -5.71429,-2.55837 -5.71429,-5.71428 0,-3.15592 2.55837,-5.71429 5.71429,-5.71429 3.15591,0 5.71428,2.55837 5.71428,5.71429 z"
         transform="matrix(0.87500001,0,0,0.87500001,-11.14286,35.080993)" />
    </g>
    <g
       transform="matrix(0.05045433,0,0,0.05045433,5.20091,1029.988)"
       id="g4026"
       style="fill:#000000">
      <path
         sodipodi:type="arc"
         style="fill:#000000;fill-opacity:1;stroke:#060e0c;stroke-width:0;stroke-miterlimit:0;stroke-opacity:0.45833339;stroke-dasharray:none;stroke-dashoffset:0"
         id="path3930"
         sodipodi:cx="125.71429"
         sodipodi:cy="268.07648"
         sodipodi:rx="5.7142859"
         sodipodi:ry="5.7142859"
         d="m 131.42857,268.07648 c 0,3.15591 -2.55837,5.71428 -5.71428,5.71428 -3.15592,0 -5.71429,-2.55837 -5.71429,-5.71428 0,-3.15592 2.55837,-5.71429 5.71429,-5.71429 3.15591,0 5.71428,2.55837 5.71428,5.71429 z"
         transform="matrix(1.25,0,0,1.25,-40.14286,-65.590546)" />
      <path
         transform="matrix(0.87500001,0,0,0.87500001,6.857138,35.080993)"
         d="m 131.42857,268.07648 c 0,3.15591 -2.55837,5.71428 -5.71428,5.71428 -3.15592,0 -5.71429,-2.55837 -5.71429,-5.71428 0,-3.15592 2.55837,-5.71429 5.71429,-5.71429 3.15591,0 5.71428,2.55837 5.71428,5.71429 z"
         sodipodi:ry="5.7142859"
         sodipodi:rx="5.7142859"
         sodipodi:cy="268.07648"
         sodipodi:cx="125.71429"
         id="path3932"
         style="fill:#000000;fill-opacity:1;stroke:#060e0c;stroke-width:0;stroke-miterlimit:0;stroke-opacity:0.45833339;stroke-dasharray:none;stroke-dashoffset:0"
         sodipodi:type="arc" />
    </g>
    <g
       style="fill:#ffffff"
       id="g11036"
       transform="matrix(0.24679401,0,0,0.24679401,-17.254504,981.32701)">
      <path
         sodipodi:type="arc"
         style="fill:#ffffff;fill-opacity:1;stroke:#060e0c;stroke-width:0;stroke-miterlimit:0;stroke-opacity:0.45833339;stroke-dasharray:none;stroke-dashoffset:0"
         id="path11038"
         sodipodi:cx="125.71429"
         sodipodi:cy="268.07648"
         sodipodi:rx="5.7142859"
         sodipodi:ry="5.7142859"
         d="m 131.42857,268.07648 c 0,3.15591 -2.55837,5.71428 -5.71428,5.71428 -3.15592,0 -5.71429,-2.55837 -5.71429,-5.71428 0,-3.15592 2.55837,-5.71429 5.71429,-5.71429 3.15591,0 5.71428,2.55837 5.71428,5.71429 z"
         transform="matrix(1.25,0,0,1.25,-58.14286,-65.590546)" />
      <path
         transform="matrix(0.87500001,0,0,0.87500001,-11.14286,35.080993)"
         d="m 131.42857,268.07648 c 0,3.15591 -2.55837,5.71428 -5.71428,5.71428 -3.15592,0 -5.71429,-2.55837 -5.71429,-5.71428 0,-3.15592 2.55837,-5.71429 5.71429,-5.71429 3.15591,0 5.71428,2.55837 5.71428,5.71429 z"
         sodipodi:ry="5.7142859"
         sodipodi:rx="5.7142859"
         sodipodi:cy="268.07648"
         sodipodi:cx="125.71429"
         id="path11040"
         style="fill:#ffffff;fill-opacity:1;stroke:#060e0c;stroke-width:0;stroke-miterlimit:0;stroke-opacity:0.45833339;stroke-dasharray:none;stroke-dashoffset:0"
         sodipodi:type="arc" />
    </g>
    <g
       style="fill:#000000"
       id="g7049"
       transform="matrix(0.32351124,0,0,0.32351124,-17.314941,960.51641)">
      <path
         sodipodi:type="arc"
         style="fill:#000000;fill-opacity:1;stroke:#060e0c;stroke-width:0;stroke-miterlimit:0;stroke-opacity:0.45833339;stroke-dasharray:none;stroke-dashoffset:0"
         id="path7051"
         sodipodi:cx="125.71429"
         sodipodi:cy="268.07648"
         sodipodi:rx="5.7142859"
         sodipodi:ry="5.7142859"
         d="m 131.42857,268.07648 c 0,3.15591 -2.55837,5.71428 -5.71428,5.71428 -3.15592,0 -5.71429,-2.55837 -5.71429,-5.71428 0,-3.15592 2.55837,-5.71429 5.71429,-5.71429 3.15591,0 5.71428,2.55837 5.71428,5.71429 z"
         transform="matrix(1.25,0,0,1.25,-58.14286,-65.590546)" />
      <path
         transform="matrix(0.87500001,0,0,0.87500001,-11.14286,35.080993)"
         d="m 131.42857,268.07648 c 0,3.15591 -2.55837,5.71428 -5.71428,5.71428 -3.15592,0 -5.71429,-2.55837 -5.71429,-5.71428 0,-3.15592 2.55837,-5.71429 5.71429,-5.71429 3.15591,0 5.71428,2.55837 5.71428,5.71429 z"
         sodipodi:ry="5.7142859"
         sodipodi:rx="5.7142859"
         sodipodi:cy="268.07648"
         sodipodi:cx="125.71429"
         id="path7053"
         style="fill:#000000;fill-opacity:1;stroke:#060e0c;stroke-width:0;stroke-miterlimit:0;stroke-opacity:0.45833339;stroke-dasharray:none;stroke-dashoffset:0"
         sodipodi:type="arc" />
    </g>
    <g
       transform="matrix(0.24679401,0,0,0.24679401,-9.7199395,981.19209)"
       id="g7055"
       style="fill:#ffffff">
      <path
         transform="matrix(1.25,0,0,1.25,-58.14286,-65.590546)"
         d="m 131.42857,268.07648 c 0,3.15591 -2.55837,5.71428 -5.71428,5.71428 -3.15592,0 -5.71429,-2.55837 -5.71429,-5.71428 0,-3.15592 2.55837,-5.71429 5.71429,-5.71429 3.15591,0 5.71428,2.55837 5.71428,5.71429 z"
         sodipodi:ry="5.7142859"
         sodipodi:rx="5.7142859"
         sodipodi:cy="268.07648"
         sodipodi:cx="125.71429"
         id="path7057"
         style="fill:#ffffff;fill-opacity:1;stroke:#060e0c;stroke-width:0;stroke-miterlimit:0;stroke-opacity:0.45833339;stroke-dasharray:none;stroke-dashoffset:0"
         sodipodi:type="arc" />
      <path
         sodipodi:type="arc"
         style="fill:#ffffff;fill-opacity:1;stroke:#060e0c;stroke-width:0;stroke-miterlimit:0;stroke-opacity:0.45833339;stroke-dasharray:none;stroke-dashoffset:0"
         id="path7059"
         sodipodi:cx="125.71429"
         sodipodi:cy="268.07648"
         sodipodi:rx="5.7142859"
         sodipodi:ry="5.7142859"
         d="m 131.42857,268.07648 c 0,3.15591 -2.55837,5.71428 -5.71428,5.71428 -3.15592,0 -5.71429,-2.55837 -5.71429,-5.71428 0,-3.15592 2.55837,-5.71429 5.71429,-5.71429 3.15591,0 5.71428,2.55837 5.71428,5.71429 z"
         transform="matrix(0.87500001,0,0,0.87500001,-11.14286,35.080993)" />
    </g>
  </g>
</svg>
