<?xml version="1.0" encoding="UTF-8" standalone="no"?>
<!-- Created with Inkscape (http://www.inkscape.org/) -->

<svg
   xmlns:dc="http://purl.org/dc/elements/1.1/"
   xmlns:cc="http://creativecommons.org/ns#"
   xmlns:rdf="http://www.w3.org/1999/02/22-rdf-syntax-ns#"
   xmlns:svg="http://www.w3.org/2000/svg"
   xmlns="http://www.w3.org/2000/svg"
   xmlns:sodipodi="http://sodipodi.sourceforge.net/DTD/sodipodi-0.dtd"
   xmlns:inkscape="http://www.inkscape.org/namespaces/inkscape"
   width="16"
   height="16"
   id="svg2"
   version="1.1"
   inkscape:version="0.48.3.1 r9886"
   sodipodi:docname="moveleft.svg">
  <sodipodi:namedview
     id="base"
     pagecolor="#ffffff"
     bordercolor="#666666"
     borderopacity="1.0"
     inkscape:pageopacity="0.0"
     inkscape:pageshadow="2"
     inkscape:zoom="31.229504"
     inkscape:cx="8.5215756"
     inkscape:cy="8.3781417"
     inkscape:document-units="px"
     inkscape:current-layer="layer1"
     showgrid="false"
     inkscape:window-width="1366"
     inkscape:window-height="718"
     inkscape:window-x="0"
     inkscape:window-y="0"
     inkscape:window-maximized="1" />
  <defs
     id="defs4" />
  <metadata
     id="metadata7">
    <rdf:RDF>
      <cc:Work
         rdf:about="">
        <dc:format>image/svg+xml</dc:format>
        <dc:type
           rdf:resource="http://purl.org/dc/dcmitype/StillImage" />
        <dc:title></dc:title>
      </cc:Work>
    </rdf:RDF>
  </metadata>
  <g
     inkscape:label="Layer 1"
     inkscape:groupmode="layer"
     id="layer1"
     transform="translate(0,-1036.3622)">
    <g
       id="g3126"
       transform="matrix(-1.1278735,0,0,-1.1278735,17.067592,2222.6649)">
      <g
         transform="matrix(-1.0516205,0,0,1.0516205,14.582471,-53.91575)"
         id="g3088">
        <path
           style="fill:#000000;fill-opacity:1;stroke:#000000;stroke-width:0;stroke-linejoin:miter;stroke-miterlimit:4;stroke-opacity:1;stroke-dasharray:none;stroke-dashoffset:0"
           d="m 1.8087831,1043.7385 c -0.3482589,0.3542 -0.3433853,0.9333 0.010785,1.2816 l 3.2977723,3.2427 c 0.35417,0.3483 0.9110444,0.3215 1.2593034,-0.033 l 0.1971933,-0.2005 c -0.075302,-0.04 -0.1580556,-0.068 -0.2220787,-0.1307 L 3.499631,1045.094 c -0.3541699,-0.3482 -0.3590435,-0.9274 -0.010785,-1.2815 l 2.8045266,-2.8522 c 0.098227,-0.1 0.2288792,-0.1355 0.3520534,-0.1797 l -0.3342337,-0.3287 c -0.3541699,-0.3482 -0.9333267,-0.3434 -1.2815857,0.011 l -3.2208235,3.2755 z"
           id="rect3083"
           inkscape:connector-curvature="0" />
      </g>
      <g
         transform="matrix(-1.0131929,0,0,1.0131929,11.230023,-13.656637)"
         id="g3091">
        <path
           inkscape:connector-curvature="0"
           id="path3093"
           d="m 1.8087831,1043.7385 c -0.3482589,0.3542 -0.3433853,0.9333 0.010785,1.2816 l 3.2977723,3.2427 c 0.35417,0.3483 0.9110444,0.3215 1.2593034,-0.033 l 0.1971933,-0.2005 c -0.075302,-0.04 -0.1580556,-0.068 -0.2220787,-0.1307 L 3.499631,1045.094 c -0.3541699,-0.3482 -0.3590435,-0.9274 -0.010785,-1.2815 l 2.8045266,-2.8522 c 0.098227,-0.1 0.2288792,-0.1355 0.3520534,-0.1797 l -0.3342337,-0.3287 c -0.3541699,-0.3482 -0.9333267,-0.3434 -1.2815857,0.011 l -3.2208235,3.2755 z"
           style="fill:#000000;fill-opacity:1;stroke:#000000;stroke-width:0;stroke-linejoin:miter;stroke-miterlimit:4;stroke-opacity:1;stroke-dasharray:none;stroke-dashoffset:0" />
      </g>
      <rect
         transform="scale(-1,1)"
         y="1039.9735"
         x="-13.908999"
         height="9.0582895"
         width="0.94287026"
         id="rect3101"
         style="fill:#000000;fill-opacity:1;stroke:#000000;stroke-width:0;stroke-linejoin:miter;stroke-miterlimit:4;stroke-opacity:1;stroke-dasharray:none;stroke-dashoffset:0" />
      <g
         id="g3103"
         transform="matrix(-0.87229162,0,0,0.87229162,7.685991,133.49244)">
        <path
           style="fill:#000000;fill-opacity:1;stroke:#000000;stroke-width:0;stroke-linejoin:miter;stroke-miterlimit:4;stroke-opacity:1;stroke-dasharray:none;stroke-dashoffset:0"
           d="m 1.8087831,1043.7385 c -0.3482589,0.3542 -0.3433853,0.9333 0.010785,1.2816 l 3.2977723,3.2427 c 0.35417,0.3483 0.9110444,0.3215 1.2593034,-0.033 l 0.1971933,-0.2005 c -0.075302,-0.04 -0.1580556,-0.068 -0.2220787,-0.1307 L 3.499631,1045.094 c -0.3541699,-0.3482 -0.3590435,-0.9274 -0.010785,-1.2815 l 2.8045266,-2.8522 c 0.098227,-0.1 0.2288792,-0.1355 0.3520534,-0.1797 l -0.3342337,-0.3287 c -0.3541699,-0.3482 -0.9333267,-0.3434 -1.2815857,0.011 l -3.2208235,3.2755 z"
           id="path3105"
           inkscape:connector-curvature="0" />
      </g>
    </g>
  </g>
</svg>
