<?xml version="1.0" encoding="UTF-8" standalone="no"?>
<!-- Created with Inkscape (http://www.inkscape.org/) -->

<svg
   xmlns:dc="http://purl.org/dc/elements/1.1/"
   xmlns:cc="http://creativecommons.org/ns#"
   xmlns:rdf="http://www.w3.org/1999/02/22-rdf-syntax-ns#"
   xmlns:svg="http://www.w3.org/2000/svg"
   xmlns="http://www.w3.org/2000/svg"
   xmlns:sodipodi="http://sodipodi.sourceforge.net/DTD/sodipodi-0.dtd"
   xmlns:inkscape="http://www.inkscape.org/namespaces/inkscape"
   width="19"
   height="19"
   id="svg3789"
   version="1.1"
   inkscape:version="0.48.3.1 r9886"
   sodipodi:docname="web.svg"
   inkscape:export-filename="/home/ssg21/Desktop/22x22/save.png"
   inkscape:export-xdpi="90"
   inkscape:export-ydpi="90">
  <defs
     id="defs3791" />
  <sodipodi:namedview
     id="base"
     pagecolor="#ffffff"
     bordercolor="#666666"
     borderopacity="1.0"
     inkscape:pageopacity="0.0"
     inkscape:pageshadow="2"
     inkscape:zoom="24.879794"
     inkscape:cx="10.254076"
     inkscape:cy="10.724378"
     inkscape:document-units="px"
     inkscape:current-layer="layer1"
     showgrid="false"
     inkscape:window-width="1366"
     inkscape:window-height="718"
     inkscape:window-x="0"
     inkscape:window-y="0"
     inkscape:window-maximized="1"
     showguides="true"
     inkscape:guide-bbox="true" />
  <metadata
     id="metadata3794">
    <rdf:RDF>
      <cc:Work
         rdf:about="">
        <dc:format>image/svg+xml</dc:format>
        <dc:type
           rdf:resource="http://purl.org/dc/dcmitype/StillImage" />
        <dc:title />
      </cc:Work>
    </rdf:RDF>
  </metadata>
  <g
     inkscape:label="Layer 1"
     inkscape:groupmode="layer"
     id="layer1"
     transform="translate(0,-1033.3622)">
    <g
       id="g3002"
       transform="translate(-0.68328542,0.48231912)">
      <path
         transform="matrix(1.2609687,0,0,1.2609687,-3.4986269,1025.055)"
         d="m 17.809711,13.793586 c 0,3.8748 -3.141146,7.015947 -7.015947,7.015947 -3.8748003,0 -7.0159468,-3.141147 -7.0159468,-7.015947 0,-3.8748007 3.1411465,-7.0159471 7.0159468,-7.0159471 3.874801,0 7.015947,3.1411464 7.015947,7.0159471 z"
         sodipodi:ry="7.0159469"
         sodipodi:rx="7.0159469"
         sodipodi:cy="13.793586"
         sodipodi:cx="10.793764"
         id="path6153"
         style="fill:#000000;fill-opacity:1;stroke:#000000;stroke-width:0.31721649;stroke-linejoin:miter;stroke-miterlimit:4;stroke-opacity:1;stroke-dasharray:none;stroke-dashoffset:0"
         sodipodi:type="arc" />
      <path
         sodipodi:nodetypes="ccccc"
         inkscape:connector-curvature="0"
         id="rect6838"
         d="m 6.4430318,1037.28 1.1494139,0 0,2.2845 -1.1943132,0.7238 z"
         style="fill:#ffffff;fill-opacity:1;stroke:#000000;stroke-width:0;stroke-miterlimit:4;stroke-opacity:0.62827226;stroke-dashoffset:0" />
      <path
         inkscape:connector-curvature="0"
         id="path6833"
         d="m 10.551209,1036.8181 -5.8894142,4.2925 0,0.8166 5.8894142,-4.2923 5.036409,4.2923 0,-0.8166 -5.036409,-4.2925 z"
         style="fill:#ffffff;stroke:#000000;stroke-width:0;stroke-linecap:butt;stroke-linejoin:miter;stroke-miterlimit:4;stroke-opacity:1;stroke-dasharray:none" />
      <path
         sodipodi:type="arc"
         style="fill:none;stroke:#f8f8f8;stroke-width:0.9637664;stroke-linejoin:miter;stroke-miterlimit:4;stroke-opacity:1;stroke-dasharray:none;stroke-dashoffset:0"
         id="path6155"
         sodipodi:cx="10.793764"
         sodipodi:cy="13.793586"
         sodipodi:rx="7.0159469"
         sodipodi:ry="7.0159469"
         d="m 17.809711,13.793586 c 0,3.8748 -3.141146,7.015947 -7.015947,7.015947 -3.8748003,0 -7.0159468,-3.141147 -7.0159468,-7.015947 0,-3.8748007 3.1411465,-7.0159471 7.0159468,-7.0159471 3.874801,0 7.015947,3.1411464 7.015947,7.0159471 z"
         transform="matrix(1.0375958,0,0,1.0375958,-1.087593,1028.1359)" />
      <path
         inkscape:connector-curvature="0"
         id="path6828"
         d="m 10.582119,1038.2102 -4.6000446,3.3526 0,5.642 2.7501076,0 0,-1.4035 c 0,-0.4039 0.3261676,-0.7299 0.7300544,-0.7299 l 1.6231226,0 c 0.403889,0 0.722969,0.326 0.722969,0.7299 l 0,1.4035 2.707577,0 0,-5.642 -3.933786,-3.3526 z"
         style="fill:#ffffff;stroke:#000000;stroke-width:0;stroke-linecap:butt;stroke-linejoin:miter;stroke-miterlimit:4;stroke-opacity:1;stroke-dasharray:none" />
    </g>
  </g>
</svg>
